# xmcd
#
# Track frame offsets:
#	150
#	13649
#	29439
#	42488
#	56665
#	69697
#	81505
#	97031
#	107606
#	121941
#	137908
#	154858
#	165499
#	177254
#	190715
#	206262
#	219094
#	234993
#	248329
#	259794
#
# Disc length: 3646 seconds
#
# Revision: 0
# Processed by: cddbd v1.5.2PL0 Copyright (c) Steve Scherf et al.
# Submitted via: dBpowerAMP V4.0
#
DISCID=0c0e3c14
DTITLE=BRONCO - 20 EXITOS ORIGINALES
DYEAR=2013
DGENRE=Folklore
TTITLE0=CON ZAPATOS DE TACON
TTITLE1=ADORO
TTITLE2=SERGIO EL BAILADOR
TTITLE3=SI TE VUELVES A ENAMORAR
TTITLE4=VOY A TUMBAR LA CASITA
TTITLE5=DEJENME LLORAR
TTITLE6=POR RETENERTE
TTITLE7=EL SHERIFF DE CHOCOLATE
TTITLE8=EL GOLPE TRAIDOR
TTITLE9=CORAZON BANDIDO
TTITLE10=QUE NO ME OLVIDE EN VIVO
TTITLE11=CARITA CHORREADA
TTITLE12=EL CHUPETON (EN VIVO)
TTITLE13=BESOS CALLEJEROS
TTITLE14=SE VENDE UN CORAZON
TTITLE15=LA PATA COJA
TTITLE16=EL LLANTO ME ESTA MOJANDO
TTITLE17=LA ULTIMA COPA
TTITLE18=AMOR Y ODIO
TTITLE19=BAILANDO JALAO
EXTD=
EXTT0=
EXTT1=
EXTT2=
EXTT3=
EXTT4=
EXTT5=
EXTT6=
EXTT7=
EXTT8=
EXTT9=
EXTT10=
EXTT11=
EXTT12=
EXTT13=
EXTT14=
EXTT15=
EXTT16=
EXTT17=
EXTT18=
EXTT19=
PLAYORDER=
